HIERARCHY
ROOT Bone
{
	OFFSET 0.000000 -0.225051 -0.001106
	CHANNELS 6 Xposition Yposition Zposition Xrotation Yrotation Zrotation
	JOINT Bone.004
	{
		OFFSET -0.000000 0.057074 0.003869
		CHANNELS 3 Xrotation Yrotation Zrotation
		JOINT Bone.002
		{
			OFFSET -0.000000 0.057074 -0.000000
			CHANNELS 3 Xrotation Yrotation Zrotation
			JOINT Bone.006
			{
				OFFSET -0.000000 0.057074 -0.000790
				CHANNELS 3 Xrotation Yrotation Zrotation
				JOINT Bone.001
				{
					OFFSET -0.000000 0.057074 -0.000395
					CHANNELS 3 Xrotation Yrotation Zrotation
					JOINT Bone.005
					{
						OFFSET -0.000000 0.057074 -0.000790
						CHANNELS 3 Xrotation Yrotation Zrotation
						JOINT Bone.003
						{
							OFFSET -0.000000 0.057074 -0.001974
							CHANNELS 3 Xrotation Yrotation Zrotation
							JOINT Bone.007
							{
								OFFSET -0.000000 0.057074 -0.000790
								CHANNELS 3 Xrotation Yrotation Zrotation
								End Site
								{
									OFFSET -0.000000 0.057074 -0.001974
								}
							}
						}
					}
					JOINT Bone.009
					{
						OFFSET -0.000000 0.013287 0.092672
						CHANNELS 6 Xposition Yposition Zposition Xrotation Yrotation Zrotation
						End Site
						{
							OFFSET -0.000000 0.059086 -0.002472
						}
					}
				}
				JOINT Bone.010
				{
					OFFSET -0.000000 0.011274 0.094749
					CHANNELS 6 Xposition Yposition Zposition Xrotation Yrotation Zrotation
					End Site
					{
						OFFSET -0.000000 0.059086 -0.002472
					}
				}
			}
			JOINT Bone.008
			{
				OFFSET -0.000000 0.009262 0.096432
				CHANNELS 6 Xposition Yposition Zposition Xrotation Yrotation Zrotation
				End Site
				{
					OFFSET -0.000000 0.059086 -0.002472
				}
			}
		}
	}
}
MOTION
Frames: 9
Frame Time: 0.016667
0.000000 -0.225051 -0.001106 0.000000 -0.000000 -0.000000 0.000000 -0.000000 -0.000000 0.000000 -0.000000 -0.000000 0.000000 -0.000000 0.000000 0.000000 0.000000 0.000000 -0.000000 -0.000000 -0.000000 -0.000000 -0.000000 -0.000000 0.000000 0.000000 -0.000000 -0.000000 0.013287 0.092672 0.000000 -0.000000 0.000000 -0.000000 0.011274 0.094749 0.000000 0.000000 0.000000 -0.000000 0.009262 0.096432 0.000000 -0.000000 -0.000000 
0.000000 -0.225051 -0.001106 0.000000 -0.000000 -0.000000 0.000000 -0.000000 -0.000000 -0.000002 -0.001533 -0.172343 -0.000002 -0.001009 -0.172358 -0.000002 0.001533 0.172343 0.000000 -0.000000 0.172365 -0.000000 0.000048 0.026119 -0.000000 0.000041 0.026119 -0.000000 0.013287 0.092672 0.000000 -0.000000 -0.000000 -0.000000 0.011274 0.094749 0.000000 -0.000000 -0.000000 -0.000000 0.009262 0.096432 0.000000 0.000000 0.000000 
0.000000 -0.225051 -0.001106 0.000000 -0.000000 -0.000000 0.000000 -0.000000 -0.000000 -0.000004 -0.001396 -0.344720 -0.000005 -0.001631 -0.344728 -0.000004 0.001396 0.344720 0.000000 -0.000000 0.344740 -0.000000 0.000038 0.104972 0.000000 -0.000211 0.104979 -0.000000 0.013287 0.092672 0.000000 -0.000000 -0.000000 -0.000000 0.011274 0.094749 0.000000 -0.000000 -0.000000 -0.000000 0.009262 0.096432 0.000000 -0.000000 -0.000000 
0.000000 -0.225051 -0.001106 0.000000 -0.000000 -0.000000 0.000000 -0.000000 -0.000000 -0.000002 -0.000467 -0.517118 -0.000008 -0.001860 -0.517112 -0.000002 0.000467 0.517118 0.000000 -0.000000 0.517124 0.000000 -0.000134 0.237022 0.000000 -0.000000 0.237020 -0.000000 0.013287 0.092672 0.000000 -0.000000 -0.000000 -0.000000 0.011274 0.094749 -0.000000 -0.000000 -0.000000 -0.000000 0.009262 0.096432 0.000000 0.000000 0.000000 
0.000000 -0.225051 -0.001106 0.000000 -0.000000 -0.000000 0.000000 -0.000000 -0.000000 -0.000000 0.000000 -0.689518 -0.000011 -0.001736 -0.689506 -0.000000 -0.000000 0.689518 0.000000 -0.000000 0.689518 0.000001 -0.000266 0.422294 -0.000000 -0.000000 0.422290 -0.000000 0.013287 0.092672 0.000000 -0.000000 -0.000000 -0.000000 0.011274 0.094749 0.000000 0.000000 0.000000 -0.000000 0.009262 0.096432 0.000000 -0.000000 -0.000000 
0.000000 -0.225051 -0.001106 0.000000 -0.000000 -0.000000 0.000000 -0.000000 -0.000000 -0.000000 -0.000000 -0.861921 -0.000010 -0.001360 -0.861912 0.000000 0.000000 0.861921 0.000000 -0.000000 0.861921 -0.000000 -0.000000 0.660271 0.000000 -0.000000 0.660271 -0.000000 0.013287 0.092672 -0.000000 -0.000000 -0.000000 -0.000000 0.011274 0.094749 0.000000 0.000000 0.000000 -0.000000 0.009262 0.096432 0.000000 0.000000 0.000000 
0.000000 -0.225051 -0.001106 0.000000 -0.000000 -0.000000 0.000000 -0.000000 -0.000000 -0.000000 -0.000000 -1.034332 -0.000008 -0.000875 -1.034326 0.000000 0.000000 1.034331 0.000000 -0.000000 1.034332 -0.000002 0.000215 0.949811 0.000001 -0.000000 0.949814 -0.000000 0.013287 0.092672 0.000000 0.000000 0.000000 -0.000000 0.011274 0.094749 0.000000 -0.000000 -0.000000 -0.000000 0.009262 0.096432 0.000000 -0.000000 0.000000 
0.000000 -0.225051 -0.001106 0.000000 -0.000000 -0.000000 0.000000 -0.000000 -0.000000 -0.000000 0.000000 -1.206749 -0.000005 -0.000422 -1.206746 0.000000 -0.000000 1.206749 0.000000 -0.000000 1.206749 0.000000 0.000000 1.289031 0.000001 -0.000000 1.289031 -0.000000 0.013287 0.092672 0.000000 -0.000000 -0.000000 -0.000000 0.011274 0.094749 0.000000 -0.000000 -0.000000 -0.000000 0.009262 0.096432 0.000000 0.000000 0.000000 
0.000000 -0.225051 -0.001106 0.000000 -0.000000 -0.000000 0.000000 -0.000000 -0.000000 -0.000000 0.000000 -1.379171 -0.000001 -0.000111 -1.379170 0.000000 -0.000000 1.379171 0.000000 -0.000000 1.379171 -0.000000 0.000012 1.675222 0.000000 0.000000 1.675223 -0.000000 0.013287 0.092672 0.000000 0.000000 0.000000 -0.000000 0.011274 0.094749 0.000000 0.000000 0.000000 -0.000000 0.009262 0.096432 0.000000 0.000000 0.000000 
